<svg width="32" height="32" viewBox="0 0 32 32" fill="none" xmlns="http://www.w3.org/2000/svg">
<path d="M29.9733 13.5333L28.16 12.68C27.5733 12.52 27.04 11.9333 26.9333 11.4L25.76 6.01333C25.6533 5.48 25.0666 5 24.48 5H12.7466C12.16 5 11.4666 5.53333 11.2 6.01333C11.2 6.01333 9.43998 9.48 8.90665 10.4933C8.63998 10.9733 7.46665 11.9867 6.87998 12.1467C5.75998 12.5733 3.46665 13.96 3.46665 13.96C2.87998 14.12 2.29332 14.92 2.13332 15.4L2.45332 16.4133L1.59998 17.3733L1.06665 19.3467H31.04V14.8667C30.9866 14.44 30.5066 13.6933 29.9733 13.5333Z" fill="#F15744"/>
<path d="M32 20.6267C32 19.88 31.7333 19.4534 31.2 19.4534H0.8C0.266667 19.4534 0 19.88 0 20.6267C0 20.7867 0.0533334 21.6934 0.106667 21.8534C0.213333 22.4934 0.746667 22.44 1.33333 22.44H30.72C31.2533 22.44 31.7867 22.4934 31.9467 21.8534C31.9467 21.6934 32 20.7867 32 20.6267Z" fill="#B2C1C0"/>
<path d="M18.9867 11.4533C18.9867 11.7733 19.2 11.9866 19.4667 11.9866H24.5867C24.8534 11.9866 25.0134 11.72 24.96 11.4533L24.2667 7.07996C24.2134 6.75996 23.9467 6.54663 23.68 6.54663H19.4667C19.2 6.54663 18.9867 6.8133 18.9867 7.07996V11.4533ZM17.4934 7.07996C17.4934 6.75996 17.28 6.54663 17.0134 6.54663H13.28C13.0134 6.54663 12.6934 6.75997 12.5334 7.02663L10.5067 11.5066C10.4 11.7733 10.5067 11.9866 10.7734 11.9866H16.96C17.2267 11.9866 17.44 11.72 17.44 11.4533V7.07996H17.4934Z" fill="#3E4347"/>
<path d="M1.54663 17.4802H3.03996C3.30663 17.4802 3.5733 17.2668 3.62663 17.0002L3.94663 15.9868C4.0533 15.7202 3.8933 15.5068 3.67996 15.5068H2.07996L1.54663 17.4802Z" fill="white"/>
<path d="M30.9867 15.4534H29.7601C29.5467 15.4534 29.3334 15.6667 29.2801 15.9334C29.2801 15.9334 29.0667 16.68 29.0134 16.9467C28.9601 17.2134 29.0667 17.4267 29.2267 17.4267H30.9867V15.4534Z" fill="#FFE62E"/>
<path d="M7.52004 26.3868C9.99428 26.3868 12 24.381 12 21.9068C12 19.4325 9.99428 17.4268 7.52004 17.4268C5.0458 17.4268 3.04004 19.4325 3.04004 21.9068C3.04004 24.381 5.0458 26.3868 7.52004 26.3868Z" fill="#3E4347"/>
<path d="M10.08 21.9067C10.08 23.2933 8.90663 24.4667 7.51996 24.4667C6.07996 24.4667 4.95996 23.3467 4.95996 21.9067C4.95996 20.52 6.13329 19.3467 7.51996 19.3467C8.90663 19.3467 10.08 20.52 10.08 21.9067Z" fill="#E8E8E8"/>
<path d="M8.10663 20.6799C7.99996 20.9999 7.73329 21.3199 7.51996 21.3199C7.30663 21.3199 7.03996 21.0532 6.93329 20.6799V20.6266C6.82663 20.3066 7.09329 19.9866 7.57329 19.9866C7.94663 19.9866 8.21329 20.3066 8.10663 20.6799ZM6.71996 20.7866C6.93329 21.0532 7.03996 21.4266 6.93329 21.5866C6.82663 21.7999 6.45329 21.8532 6.07996 21.7999H6.02663C5.65329 21.7466 5.54663 21.3199 5.81329 20.9466C6.07996 20.5732 6.45329 20.4666 6.71996 20.7866ZM6.07996 22.0132C6.45329 21.9599 6.82663 22.0132 6.93329 22.2266C7.03996 22.4399 6.93329 22.8132 6.71996 23.0799L6.66663 23.1332C6.39996 23.3999 6.02663 23.2932 5.81329 22.9199C5.59996 22.4932 5.70663 22.1199 6.07996 22.0132ZM6.87996 23.1866C6.98663 22.8666 7.25329 22.5466 7.46663 22.5466C7.67996 22.5466 7.94663 22.8132 8.05329 23.1866V23.2399C8.15996 23.5599 7.89329 23.8799 7.41329 23.8799C7.03996 23.8266 6.77329 23.5599 6.87996 23.1866ZM8.26663 23.0799C7.99996 22.8132 7.89329 22.4399 8.05329 22.2266C8.15996 22.0132 8.53329 21.9599 8.90663 22.0132H8.95996C9.33329 22.0666 9.43996 22.4932 9.17329 22.8666C8.95996 23.2399 8.58663 23.3466 8.26663 23.0799ZM8.90663 21.7999C8.53329 21.8532 8.15996 21.7999 8.05329 21.5866C7.94663 21.3732 8.05329 20.9999 8.26663 20.7332L8.31996 20.6799C8.58663 20.4132 8.95996 20.5199 9.17329 20.8932C9.38663 21.3732 9.27996 21.7466 8.90663 21.7999Z" fill="#3E4347"/>
<path d="M8.90675 23.72L8.32008 24.04L6.08008 20.1467L6.66675 19.8267L8.90675 23.72Z" fill="#E8E8E8"/>
<path d="M5.22668 21.5867H9.70669V22.2267H5.22668V21.5867Z" fill="#E8E8E8"/>
<path d="M8.32008 19.8267L8.90675 20.1467L6.66675 24.04L6.08008 23.72L8.32008 19.8267Z" fill="#E8E8E8"/>
<path d="M24.48 26.3868C26.9542 26.3868 28.96 24.381 28.96 21.9068C28.96 19.4325 26.9542 17.4268 24.48 17.4268C22.0058 17.4268 20 19.4325 20 21.9068C20 24.381 22.0058 26.3868 24.48 26.3868Z" fill="#3E4347"/>
<path d="M27.0933 21.9067C27.0933 23.2933 25.9199 24.4667 24.5333 24.4667C23.1466 24.4667 21.9733 23.3467 21.9733 21.9067C21.9733 20.52 23.1466 19.3467 24.5333 19.3467C25.9199 19.3467 27.0933 20.52 27.0933 21.9067Z" fill="#E8E8E8"/>
<path d="M25.1199 20.6799C25.0133 20.9999 24.7466 21.3199 24.5333 21.3199C24.3199 21.3199 24.0533 21.0532 23.9466 20.6799V20.6266C23.8399 20.3066 24.1066 19.9866 24.5866 19.9866C24.9599 19.9866 25.2266 20.3066 25.1199 20.6799ZM23.7333 20.7866C23.9999 21.0532 24.1066 21.4266 23.9466 21.6399C23.8399 21.8532 23.4666 21.9066 23.0933 21.8532H23.0399C22.6666 21.7999 22.5599 21.3732 22.8266 20.9999C23.0399 20.5732 23.4133 20.4666 23.7333 20.7866ZM23.0933 22.0132C23.4666 21.9599 23.8399 22.0132 23.9466 22.2266C24.0533 22.4399 23.9466 22.8132 23.7333 23.0799L23.6799 23.1332C23.4133 23.3999 23.0399 23.2932 22.8266 22.9199C22.6133 22.4932 22.7199 22.1199 23.0933 22.0132ZM23.8933 23.1866C23.9999 22.8666 24.2666 22.5466 24.4799 22.5466C24.6933 22.5466 24.9599 22.8132 25.0666 23.1866V23.2399C25.1733 23.5599 24.9066 23.8799 24.4266 23.8799C24.0533 23.8266 23.7866 23.5599 23.8933 23.1866ZM25.2799 23.0799C25.0133 22.8132 24.9066 22.4399 25.0666 22.2266C25.1733 22.0132 25.5466 21.9599 25.9199 22.0132H25.9733C26.3466 22.0666 26.4533 22.4932 26.1866 22.8666C25.9199 23.2399 25.5466 23.3466 25.2799 23.0799ZM25.9199 21.7999C25.5466 21.8532 25.1733 21.7999 25.0666 21.5866C24.9599 21.3732 25.0666 20.9999 25.2799 20.7332L25.3333 20.6799C25.5999 20.4132 25.9733 20.5199 26.1866 20.8932C26.3999 21.3732 26.2933 21.7466 25.9199 21.7999Z" fill="#3E4347"/>
<path d="M25.9201 23.72L25.3334 24.04L23.0934 20.1467L23.6801 19.8267L25.9201 23.72Z" fill="#E8E8E8"/>
<path d="M22.24 21.5867H26.72V22.2267H22.24V21.5867Z" fill="#E8E8E8"/>
<path d="M25.3334 19.8267L25.9201 20.1467L23.6801 24.04L23.0934 23.72L25.3334 19.8267Z" fill="#E8E8E8"/>
</svg>
